HIERARCHY
ROOT Hips
{
 OFFSET 0.000000 0.000000 0.000000
 CHANNELS 6 Xposition Yposition Zposition Yrotation Xrotation Zrotation
 JOINT Chest
 {
  OFFSET 0.000000 9.585900 0.002600
  CHANNELS 3 Yrotation Xrotation Zrotation
  JOINT Chest2
  {
   OFFSET 0.000000 9.601200 -0.005300
   CHANNELS 3 Yrotation Xrotation Zrotation
   JOINT Chest3
   {
    OFFSET 0.000000 9.561800 0.000000
    CHANNELS 3 Yrotation Xrotation Zrotation
    JOINT Chest4
    {
     OFFSET 0.000000 9.552100 0.000000
     CHANNELS 3 Yrotation Xrotation Zrotation
     JOINT Neck
     {
      OFFSET 0.000000 14.453000 0.000000
      CHANNELS 3 Yrotation Xrotation Zrotation
      JOINT Head
      {
       OFFSET 0.000000 8.936500 -0.011300
       CHANNELS 3 Yrotation Xrotation Zrotation
       End Site
       {
        OFFSET 0.000000 17.073600 -0.006000
       }
      }
     }
     JOINT RightCollar
     {
      OFFSET -2.921100 9.558500 0.000000
      CHANNELS 3 Yrotation Xrotation Zrotation
      JOINT RightShoulder
      {
       OFFSET -13.519700 0.000000 0.000000
       CHANNELS 3 Yrotation Xrotation Zrotation
       JOINT RightElbow
       {
        OFFSET 0.000000 -29.696600 0.000000
        CHANNELS 3 Yrotation Xrotation Zrotation
        JOINT RightWrist
        {
         OFFSET 0.000000 -24.004700 0.000000
         CHANNELS 3 Yrotation Xrotation Zrotation
         End Site
         {
          OFFSET 0.000000 -17.728500 0.000000
         }
        }
       }
      }
     }
     JOINT LeftCollar
     {
      OFFSET 2.921100 9.558500 0.000000
      CHANNELS 3 Yrotation Xrotation Zrotation
      JOINT LeftShoulder
      {
       OFFSET 13.519700 0.000000 0.000000
       CHANNELS 3 Yrotation Xrotation Zrotation
       JOINT LeftElbow
       {
        OFFSET 0.000000 -29.696600 0.000000
        CHANNELS 3 Yrotation Xrotation Zrotation
        JOINT LeftWrist
        {
         OFFSET 0.000000 -24.004700 0.000000
         CHANNELS 3 Yrotation Xrotation Zrotation
         End Site
         {
          OFFSET 0.000000 -17.728500 0.000000
         }
        }
       }
      }
     }
    }
   }
  }
 }
 JOINT RightHip
 {
  OFFSET -7.771700 -0.012900 -0.001300
  CHANNELS 3 Yrotation Xrotation Zrotation
  JOINT RightKnee
  {
   OFFSET 0.000000 -40.869800 0.001200
   CHANNELS 3 Yrotation Xrotation Zrotation
   JOINT RightAnkle
   {
    OFFSET 0.000000 -39.717900 0.002100
    CHANNELS 3 Yrotation Xrotation Zrotation
    JOINT RightToe
    {
     OFFSET 0.000000 -4.965400 11.033500
     CHANNELS 3 Yrotation Xrotation Zrotation
     End Site
     {
      OFFSET 0.000000 -1.423100 5.872300
     }
    }
   }
  }
 }
 JOINT LeftHip
 {
  OFFSET 7.771700 -0.012900 -0.001300
  CHANNELS 3 Yrotation Xrotation Zrotation
  JOINT LeftKnee
  {
   OFFSET 0.000000 -40.869800 0.001200
   CHANNELS 3 Yrotation Xrotation Zrotation
   JOINT LeftAnkle
   {
    OFFSET 0.000000 -39.717900 0.002100
    CHANNELS 3 Yrotation Xrotation Zrotation
    JOINT LeftToe
    {
     OFFSET 0.000000 -4.965400 11.033500
     CHANNELS 3 Yrotation Xrotation Zrotation
     End Site
     {
      OFFSET 0.000000 -1.423100 5.872300
     }
    }
   }
  }
 }
}
MOTION
Frames: 15
Frame Time: 0.008333
0.000000 85.388000 0.000000 0.000000 -5.767877 0.000000 0.000000 11.653817 0.000000 0.000000 -5.885947 0.000000 0.000000 -0.000000 0.000000 0.000000 -0.000000 0.000000 0.000000 12.528835 0.000000 0.000000 0.711642 0.000000 0.000000 -0.000000 0.000000 0.000000 0.000000 -90.000000 0.000000 -2.309062 0.000000 0.000000 2.309062 0.000000 0.000000 -0.000000 0.000000 0.000000 -0.000000 90.000000 0.000000 -2.309062 0.000000 0.000000 2.309062 0.000000 0.000000 8.520406 0.000000 0.000000 1.905762 0.000000 -0.000000 -4.658285 0.000000 0.000000 -0.000000 0.000000 0.000000 8.520406 0.000000 0.000000 1.905762 0.000000 -0.000000 -4.658285 0.000000 0.000000 -0.000000 0.000000
-38.271876 62.036057 13.090284 177.916279 -51.389583 -0.771178 4.189393 26.819666 -0.140593 0.645724 4.562371 -0.054042 1.016910 7.234113 -0.019980 3.165236 21.782334 0.211570 10.875905 20.011826 6.623131 17.799875 1.207935 8.749950 4.461964 13.662680 3.707389 -31.688232 -17.638306 4.493281 -140.331664 -61.262979 142.285032 2.737995 -21.429926 -26.995976 -7.601283 9.728461 1.318082 15.780710 -22.705421 7.920081 131.360734 -77.511239 -125.738409 13.285249 -27.082401 31.769022 3.212885 -15.442031 -6.648544 -1.427413 61.200660 -5.334694 1.383111 -7.029890 10.555450 0.255836 -0.532157 0.083753 -4.099795 -12.829342 1.232078 25.528729 76.552764 26.004290 0.795488 -11.769178 -3.546424 0.210242 0.685837 0.082223
-38.270412 62.035952 13.088008 177.898562 -51.385808 -0.761956 4.181212 26.812978 -0.083493 0.648193 4.568428 -0.083302 1.021587 7.227485 -0.007938 3.152246 21.790710 0.194745 10.834420 19.990399 6.584756 17.703886 1.201378 8.633283 4.511188 13.546335 3.770370 -31.578303 -17.719878 4.226818 -142.178562 -61.177867 144.378921 2.880277 -20.873465 -24.216821 -7.632079 9.688212 1.292906 15.569935 -22.814126 8.017638 139.056461 -78.243518 -133.289623 12.788012 -26.739973 30.405185 3.202127 -15.452051 -6.652260 -1.400277 61.206058 -5.309276 1.392524 -7.032471 10.551878 0.246714 -0.536058 0.084698 -4.091766 -12.832688 1.230307 25.547976 76.554736 26.025757 0.820680 -11.764151 -3.546284 0.200534 0.677475 0.078239
-38.269749 62.036295 13.084214 177.888918 -51.385647 -0.754042 4.182246 26.809673 -0.059586 0.645289 4.565995 -0.072672 1.022698 7.226256 0.005722 3.146235 21.791685 0.212306 10.772180 19.982570 6.512420 17.598938 1.199234 8.508762 4.543852 13.430849 3.799468 -31.496492 -17.812110 3.912515 -143.938256 -61.035381 146.476465 3.202841 -20.337871 -21.591736 -7.729680 9.503288 1.239501 15.376310 -22.792877 8.178081 147.868716 -78.770319 -141.972369 12.300547 -26.443157 29.054379 3.191920 -15.455277 -6.665990 -1.371706 61.211265 -5.275244 1.399801 -7.040925 10.557953 0.239797 -0.535393 0.075727 -4.087131 -12.832065 1.225594 25.563436 76.558597 26.043986 0.826815 -11.763085 -3.547194 0.226152 0.671382 0.078419
-38.264000 62.037262 13.078920 177.864789 -51.390600 -0.765353 4.211275 26.811319 -0.016942 0.642933 4.562000 -0.039161 1.021796 7.222897 0.017995 3.165973 21.780713 0.306212 10.666355 20.007965 6.370697 17.484080 1.195098 8.373211 4.536335 13.320330 3.758701 -31.435040 -17.918435 3.539032 -145.766030 -60.871594 148.689397 3.685502 -19.791725 -19.203836 -7.855034 9.340621 1.113054 15.144580 -22.807522 8.381981 157.270959 -78.993813 -151.253714 11.799980 -26.166035 27.708173 3.182099 -15.455093 -6.653283 -1.358266 61.216935 -5.245382 1.442042 -7.067045 10.563889 0.212811 -0.520382 0.051999 -4.084009 -12.823360 1.238902 25.585377 76.568948 26.081696 0.874263 -11.750343 -3.549965 0.174512 0.647132 0.062153
-38.264783 62.037573 13.072399 177.870292 -51.391994 -0.761222 4.198159 26.806890 0.010179 0.638315 4.554215 0.015528 1.017068 7.234412 -0.048089 3.187883 21.766188 0.394014 10.575756 20.017893 6.259126 17.369610 1.206504 8.231010 4.545953 13.190621 3.749421 -31.387668 -18.043022 3.103594 -147.829653 -60.712543 151.148833 4.303260 -19.213892 -17.132766 -7.960873 9.192527 1.019717 14.871889 -22.853695 8.634205 166.357710 -78.877958 -160.218582 11.274122 -25.885635 26.342906 3.174078 -15.457960 -6.680483 -1.420474 61.230459 -5.269777 1.462033 -7.078288 10.545296 0.238401 -0.518237 0.053213 -4.086209 -12.821050 1.228173 25.593277 76.571768 26.093248 0.853854 -11.750105 -3.536506 0.176648 0.640913 0.053225
-38.262322 62.037274 13.065155 177.850153 -51.390246 -0.756952 4.206231 26.793930 0.105049 0.639193 4.561621 -0.046509 1.015874 7.233735 -0.043913 3.204728 21.750143 0.463367 10.489576 20.018618 6.162040 17.255711 1.235812 8.083524 4.564082 13.051800 3.753818 -31.336217 -18.195735 2.610059 -150.269544 -60.562169 153.951850 5.014879 -18.617598 -15.409943 -8.062299 9.033921 0.947656 14.557049 -22.905015 8.941521 174.470136 -78.462815 -168.204115 10.756118 -25.587777 24.906228 3.174482 -15.463673 -6.678265 -1.436995 61.240089 -5.268462 1.459540 -7.089433 10.543613 0.245803 -0.514854 0.049738 -4.076445 -12.821178 1.237646 25.616030 76.584205 26.125102 0.844130 -11.758038 -3.542558 0.177932 0.634454 0.056619
-38.262894 62.036656 13.056664 177.860150 -51.388036 -0.758340 4.197227 26.787072 0.134349 0.637838 4.553580 -0.013917 1.014308 7.220294 0.001882 3.179248 21.756653 0.446679 10.413291 20.040128 6.064318 17.126215 1.261997 7.926555 4.579506 12.914095 3.749266 -31.246858 -18.385063 2.066969 -153.162299 -60.405005 157.126343 5.768123 -18.020688 -14.026585 -8.163086 8.868136 0.877971 14.189441 -22.960940 9.301965 -178.628767 -77.836272 -174.998443 10.204437 -25.286002 23.435218 3.135272 -15.468349 -6.715037 -1.371090 61.249926 -5.193151 1.494423 -7.110324 10.531732 0.222335 -0.510863 0.041634 -4.080798 -12.825075 1.229492 25.625160 76.597931 26.139740 0.837827 -11.763791 -3.548238 0.177469 0.631074 0.068225
-38.262013 62.035432 13.047534 177.869232 -51.383295 -0.767783 4.193178 26.780266 0.149358 0.638136 4.540052 0.042862 1.009684 7.212304 0.015964 3.165412 21.754421 0.463062 10.326460 20.060883 5.961384 16.999161 1.307254 7.767275 4.592224 12.773194 3.735047 -31.086362 -18.611868 1.489337 -156.464660 -60.205382 160.591795 6.552203 -17.425499 -12.901702 -8.257830 8.695975 0.816558 13.771641 -23.021787 9.706376 -172.763303 -77.100079 179.191651 9.568620 -25.001024 22.086390 3.120317 -15.475732 -6.722169 -1.375514 61.263376 -5.188435 1.502385 -7.120225 10.530642 0.208785 -0.515113 0.051151 -4.086011 -12.832492 1.232593 25.654721 76.613542 26.173646 0.829215 -11.769453 -3.550311 0.184999 0.624041 0.071246
-38.261107 62.033740 13.037742 177.877446 -51.377242 -0.776601 4.188698 26.765740 0.200846 0.632457 4.536648 0.044246 1.005538 7.204714 0.027090 3.159247 21.745484 0.496395 10.242218 20.084506 5.859566 16.865180 1.364648 7.607242 4.604874 12.622199 3.716372 -30.832612 -18.876984 0.891507 -160.007982 -59.922321 164.160320 7.390640 -16.834136 -11.842004 -8.343931 8.517379 0.768315 13.306972 -23.083616 10.148349 -167.579671 -76.296622 174.042704 8.894159 -24.725837 20.900244 3.106308 -15.484233 -6.728281 -1.377032 61.277068 -5.181566 1.505763 -7.129498 10.528484 0.212329 -0.516775 0.048075 -4.091108 -12.842505 1.237132 25.680406 76.631962 26.199724 0.826181 -11.772701 -3.539369 0.187724 0.612637 0.061716
-38.260661 62.031232 13.027727 177.892533 -51.367145 -0.787977 4.174750 26.749787 0.240134 0.629254 4.530433 0.049574 1.001029 7.196493 0.037631 3.151712 21.735859 0.527976 10.150064 20.116760 5.755836 16.728614 1.431002 7.448991 4.620343 12.458412 3.698526 -30.471423 -19.174666 0.281625 -163.546063 -59.546685 167.610707 8.314373 -16.263786 -10.692133 -8.425052 8.332165 0.729952 12.786810 -23.141228 10.627558 -162.952097 -75.422826 169.482444 8.237301 -24.453245 19.796535 3.076861 -15.497725 -6.744458 -1.338264 61.291293 -5.138588 1.516303 -7.139969 10.521229 0.202610 -0.518967 0.042224 -4.100539 -12.856238 1.241009 25.688797 76.651352 26.209431 0.820758 -11.781294 -3.540815 0.195702 0.609504 0.067691
-38.256964 62.029654 13.016497 177.901383 -51.366106 -0.813739 4.174344 26.740894 0.300066 0.627383 4.527404 0.043402 0.997435 7.190111 0.045184 3.147115 21.718512 0.573070 10.038663 20.151713 5.647779 16.589639 1.515739 7.295009 4.640246 12.280309 3.683045 -29.985449 -19.489136 -0.339310 -166.922477 -59.097507 170.826591 9.327191 -15.718131 -9.405194 -8.507389 8.140268 0.693997 12.209204 -23.193385 11.144082 -158.885036 -74.493986 165.506879 7.604328 -24.197085 18.764905 3.062198 -15.501582 -6.730407 -1.330149 61.306329 -5.123351 1.516352 -7.142243 10.518401 0.190579 -0.523547 0.049450 -4.113112 -12.862236 1.268049 25.710644 76.687434 26.225084 0.829532 -11.799613 -3.535362 0.193297 0.603921 0.068092
-38.256699 62.026538 13.005869 177.921544 -51.355406 -0.828275 4.155456 26.716108 0.365613 0.625599 4.539110 -0.015320 0.996197 7.187963 0.047645 3.150107 21.685655 0.647835 9.929977 20.198002 5.543098 16.423168 1.607568 7.141149 4.663828 12.086405 3.672688 -29.363630 -19.804017 -0.977722 -170.108036 -58.586199 173.804217 10.380829 -15.174165 -7.989771 -8.593934 7.943048 0.657380 11.584452 -23.238765 11.690795 -155.418026 -73.549288 162.118842 6.961985 -23.973455 17.830050 3.046322 -15.513614 -6.737494 -1.319048 61.321315 -5.108691 1.512853 -7.148537 10.517179 0.193463 -0.528715 0.047354 -4.126355 -12.877339 1.275328 25.710423 76.709298 26.219549 0.825456 -11.809365 -3.526392 0.195961 0.602372 0.068842
-38.257636 62.022941 12.995326 177.944261 -51.342975 -0.838134 4.133961 26.695550 0.396138 0.621909 4.532507 -0.010507 0.990307 7.178631 0.057882 3.135766 21.674944 0.677181 9.810636 20.248948 5.436671 16.237737 1.707829 6.987595 4.695152 11.872629 3.675779 -28.627060 -20.104161 -1.648635 -173.071680 -58.023793 176.547155 11.408480 -14.626780 -6.484460 -8.682739 7.740683 0.621002 10.914149 -23.276375 12.263214 -152.578177 -72.632907 159.332427 6.289450 -23.786970 16.969124 3.031144 -15.527446 -6.754437 -1.310532 61.337452 -5.095574 1.521463 -7.157063 10.517340 0.179631 -0.528545 0.047847 -4.137795 -12.893363 1.282074 25.675118 76.727078 26.178903 0.802404 -11.814563 -3.515517 0.214390 0.600704 0.072556
-38.258185 62.019919 12.984308 177.955968 -51.336847 -0.842126 4.123009 26.687775 0.400380 0.609602 4.503463 0.072632 0.978162 7.160550 0.076821 3.105334 21.694599 0.643171 9.679127 20.302662 5.328583 16.030595 1.812973 6.834603 4.738458 11.633928 3.698663 -27.817247 -20.377578 -2.366943 -175.726237 -57.422867 179.018698 12.373020 -14.079555 -4.947369 -8.775511 7.531801 0.584868 10.201038 -23.303424 12.862156 -150.283618 -71.771601 157.065580 5.597993 -23.632379 16.145123 3.024397 -15.537197 -6.768663 -1.304422 61.357231 -5.084383 1.536348 -7.162724 10.519117 0.170634 -0.532389 0.047807 -4.141788 -12.902775 1.284848 25.646813 76.751080 26.147290 0.808215 -11.826184 -3.509955 0.216385 0.600730 0.077259
